<svg width="520" height="520" viewBox="0 0 520 520" fill="none" xmlns="http://www.w3.org/2000/svg" role="img" aria-label="Journal sticker illustration">
  <rect x="0.5" y="0.5" width="519" height="519" rx="64" fill="rgba(255,255,255,0.04)" stroke="rgba(248,250,252,0.14)"/>
  <!-- Sticky note -->
  <path d="M160 150c0-22 18-40 40-40h120c8 0 16 3 22 9l42 42c6 6 9 14 9 22v266c0 22-18 40-40 40H200c-22 0-40-18-40-40V150Z" fill="rgba(255,255,255,0.06)" stroke="rgba(248,250,252,0.18)" stroke-width="2"/>
  <!-- Top label -->
  <path d="M312 110h40l42 42v40h-42c-22 0-40-18-40-40v-42Z" fill="rgba(45,212,255,0.18)"/>
  <!-- Lines -->
  <rect x="205" y="210" width="200" height="14" rx="7" fill="#2DD4FF" opacity="0.35"/>
  <rect x="205" y="245" width="170" height="14" rx="7" fill="#F8FAFC" opacity="0.16"/>
  <rect x="205" y="280" width="190" height="14" rx="7" fill="#F8FAFC" opacity="0.16"/>
  <rect x="205" y="315" width="140" height="14" rx="7" fill="#FFB020" opacity="0.26"/>
  <!-- Tiny heart -->
  <path d="M268 375c-18-17-44-7-44 15 0 28 44 46 44 46s44-18 44-46c0-22-26-32-44-15Z" fill="#FF5A7A" opacity="0.25"/>
</svg>

