<svg width="520" height="520" viewBox="0 0 520 520" fill="none" xmlns="http://www.w3.org/2000/svg" role="img" aria-label="MindCare friendly mascot">
  <rect x="0.5" y="0.5" width="519" height="519" rx="64" fill="rgba(255,255,255,0.04)" stroke="rgba(248,250,252,0.14)"/>
  <defs>
    <linearGradient id="gTeal" x1="120" y1="90" x2="420" y2="430" gradientUnits="userSpaceOnUse">
      <stop stop-color="#2DD4FF" stop-opacity="0.95"/>
      <stop offset="1" stop-color="#2DD4FF" stop-opacity="0.15"/>
    </linearGradient>
    <linearGradient id="gSaffron" x1="420" y1="110" x2="160" y2="410" gradientUnits="userSpaceOnUse">
      <stop stop-color="#FFB020" stop-opacity="0.95"/>
      <stop offset="1" stop-color="#FFB020" stop-opacity="0.12"/>
    </linearGradient>
  </defs>
  <circle cx="260" cy="260" r="190" fill="url(#gTeal)" opacity="0.55"/>
  <circle cx="230" cy="220" r="120" fill="url(#gSaffron)" opacity="0.55"/>
  <!-- Head -->
  <path d="M260 140c-70 0-124 56-124 126 0 62 34 118 87 129 12 2 25 2 37 0 53-11 87-67 87-129 0-70-54-126-124-126Z" fill="rgba(255,255,255,0.07)" stroke="rgba(248,250,252,0.18)"/>
  <!-- Smile -->
  <path d="M210 292c18 20 41 20 59 0" stroke="#FFB020" stroke-width="10" stroke-linecap="round"/>
  <!-- Eyes -->
  <circle cx="215" cy="235" r="12" fill="#F8FAFC" opacity="0.9"/>
  <circle cx="305" cy="235" r="12" fill="#F8FAFC" opacity="0.9"/>
  <!-- Cheeks glow -->
  <circle cx="178" cy="265" r="26" fill="#FF5A7A" opacity="0.18"/>
  <circle cx="342" cy="265" r="26" fill="#FF5A7A" opacity="0.18"/>
  <!-- Body card -->
  <path d="M110 470c14-72 78-126 150-126h0c72 0 136 54 150 126" fill="rgba(255,255,255,0.06)" stroke="rgba(248,250,252,0.14)"/>
  <!-- Heart -->
  <path d="M260 355c-16-18-44-20-60 0-16 20-8 52 20 70 14 9 25 19 40 35 15-16 26-26 40-35 28-18 36-50 20-70-16-20-44-18-60 0Z" fill="#2DD4FF" opacity="0.26"/>
  <path d="M260 365c-10-12-28-14-38-1-11 13-6 34 13 45 9 6 18 13 25 22 7-9 16-16 25-22 19-11 24-32 13-45-10-13-28-11-38 1Z" fill="#FFB020" opacity="0.55"/>
</svg>

